
<svg xmlns="http://www.w3.org/2000/svg"
     class="svg-snoweb svg-theme-light"
     x="0"
     y="0"
     width="100%"
     height="100%"
     viewBox="0 0 100 100"
     preserveAspectRatio="xMidYMid meet"
>
<defs>
    <style>
        
            
            
            
        

        .svg-fill-primary {
            fill: #FFFFFF;
        }

        .svg-fill-secondary {
            fill: #65CDAE;
        }

        .svg-fill-tertiary {
            fill: #65CDAE;
        }

        .svg-stroke-primary {
            stroke: #FFFFFF;
        }

        .svg-stroke-secondary {
            stroke: #65CDAE;
        }

        .svg-stroke-tertiary {
            stroke: #65CDAE;
        }
    </style>
</defs>
    <path class="svg-fill-primary"
      d="M10,15a5,5,0,0,1,5-5H25.8a5,5,0,0,1,4.9,4.2l3.7,22.2a5,5,0,0,1-2.7,5.3L24,45.5A54.4,54.4,0,0,0,54.5,76l3.8-7.7a5,5,0,0,1,5.3-2.7l22.2,3.7A5,5,0,0,1,90,74.2V85a5,5,0,0,1-5,5H75A65,65,0,0,1,10,25Z"/>
</svg>